<?xml version="1.0" encoding="UTF-8" standalone="no"?>
<svg
   width="128"
   height="128"
   version="1.1"
   xmlns="http://www.w3.org/2000/svg">
  <path
     d="M 64 16
        C 60.5 16 57.2 16.4 54 17.1
        L 51.5 28.5
        C 48.3 29.6 45.3 31.1 42.5 33
        L 31.8 28.2
        C 27.1 32.2 23 37 19.8 42.4
        L 27.4 51.5
        C 26.1 54.5 25.1 57.7 24.5 61
        L 13.2 65
        C 13.1 66 13 67 13 68
        C 13 69 13.1 70 13.2 71
        L 24.5 75
        C 25.1 78.3 26.1 81.5 27.4 84.5
        L 19.8 93.6
        C 23 99 27.1 103.8 31.8 107.8
        L 42.5 103
        C 45.3 104.9 48.3 106.4 51.5 107.5
        L 54 118.9
        C 57.2 119.6 60.5 120 64 120
        C 67.5 120 70.8 119.6 74 118.9
        L 76.5 107.5
        C 79.7 106.4 82.7 104.9 85.5 103
        L 96.2 107.8
        C 100.9 103.8 105 99 108.2 93.6
        L 100.6 84.5
        C 101.9 81.5 102.9 78.3 103.5 75
        L 114.8 71
        C 114.9 70 115 69 115 68
        C 115 67 114.9 66 114.8 65
        L 103.5 61
        C 102.9 57.7 101.9 54.5 100.6 51.5
        L 108.2 42.4
        C 105 37 100.9 32.2 96.2 28.2
        L 85.5 33
        C 82.7 31.1 79.7 29.6 76.5 28.5
        L 74 17.1
        C 70.8 16.4 67.5 16 64 16
        Z
        M 64 44
        C 77.3 44 88 54.7 88 68
        C 88 81.3 77.3 92 64 92
        C 50.7 92 40 81.3 40 68
        C 40 54.7 50.7 44 64 44
        Z"
     style="fill:#2e3436;fill-opacity:1"
     fill="#2e3436" />
</svg>
