<?xml version="1.0" encoding="UTF-8"?>
<svg xmlns="http://www.w3.org/2000/svg" xmlns:xlink="http://www.w3.org/1999/xlink" contentScriptType="text/ecmascript" zoomAndPan="magnify" baseProfile="tiny" contentStyleType="text/css" version="1.1" width="42px" preserveAspectRatio="xMidYMid meet" viewBox="0 0 42 29" height="29px" x="0px" y="0px">
    <g>
        <rect width="42" fill="none" height="29"/>
    </g>
    <g>
        <path d="M 33.134 17.695 C 33.134 17.72 33.136997 17.678999 33.136997 17.618 C 33.131996 17.367 33.109997 16.799 32.739 16.205 C 32.490997 15.795 32.024998 15.438 31.406998 15.253 C 32.031998 15.068 32.501 14.705 32.749996 14.288 C 33.117996 13.696 33.141994 13.123 33.145996 12.878 C 33.145996 12.835 33.143997 12.807 33.143997 12.787001 L 33.135 5.3360004 C 33.135 5.3630004 33.137997 5.3230004 33.137997 5.2620006 C 33.132996 5.0120006 33.110996 4.4410005 32.739998 3.8490005 C 32.378998 3.2490005 31.580997 2.7370005 30.469997 2.7560005 L 23.167997 2.7560005 C 22.059998 2.7380006 21.260998 3.2500005 20.899998 3.8510005 C 20.739998 4.1070004 20.651999 4.3530006 20.595997 4.5770006 C 20.538998 4.3520007 20.450996 4.1050005 20.289997 3.8490007 C 19.927998 3.2480006 19.129997 2.7370007 18.021997 2.7550006 L 10.718998 2.7550006 C 9.609 2.737 8.811 3.249 8.45 3.85 C 8.078 4.442 8.056 5.014 8.051 5.261 C 8.051 5.309 8.0529995 5.349 8.056 5.376 L 8.063 12.792999 C 8.061999 12.813999 8.061999 12.841999 8.061999 12.875999 C 8.065 13.12 8.087999 13.693 8.455999 14.285 C 8.704999 14.701 9.174 15.061 9.796999 15.247 C 9.169999 15.432 8.698999 15.792 8.448999 16.206999 C 8.077 16.801998 8.054999 17.369999 8.049999 17.617998 C 8.049999 17.664999 8.0529995 17.705997 8.054999 17.731998 L 8.063 25.147999 C 8.061999 25.168999 8.061999 25.196999 8.061999 25.231998 C 8.065 25.475998 8.087999 26.047998 8.455999 26.64 C 8.817999 27.244 9.615 27.758 10.728 27.741 L 18.031 27.741 C 18.051 27.741999 18.071001 27.741999 18.09 27.744999 C 19.169 27.744999 19.943 27.241 20.3 26.646 C 20.460999 26.388 20.547998 26.138 20.604 25.914 C 20.66 26.138 20.747 26.385 20.906 26.640999 C 21.267 27.244999 22.065 27.758999 23.177 27.741999 L 30.480999 27.741999 C 30.501 27.742998 30.522 27.742998 30.540998 27.745998 C 31.617998 27.745998 32.394997 27.241999 32.75 26.647 C 33.118 26.055 33.142 25.483 33.146 25.238998 C 33.146 25.193998 33.144 25.165998 33.144 25.148998 L 33.134 17.695 z M 32.454 25.159 L 32.454 25.159 L 32.454 25.159 L 32.454 25.159 z M 32.454 12.802 L 32.454 12.802 L 32.454 12.802 L 32.454 12.802 z M 20.003 25.159 L 20.003 25.159 L 20.003 25.159 L 20.003 25.159 z M 20.003 12.802 L 20.003 12.802 L 20.003 12.802 L 20.003 12.802 z M 20.899 16.207 C 20.738 16.465 20.651001 16.712 20.594 16.936 C 20.537 16.711 20.449 16.463001 20.288 16.206001 C 20.039 15.796001 19.574 15.4400015 18.957 15.254002 C 19.582 15.069001 20.050001 14.705002 20.301 14.288002 C 20.461 14.031002 20.548 13.783002 20.604 13.559002 C 20.661 13.783002 20.747 14.030002 20.906 14.287002 C 21.155 14.703002 21.623001 15.063002 22.247 15.250002 C 21.62 15.432 21.148 15.792 20.899 16.207 z " fill-opacity="0.2" stroke-opacity="0.2"/>
        <g>
            <path d="M 32.454 12.804 L 32.442997 5.338 C 32.442997 5.338 32.588997 3.448 30.469997 3.448 L 23.165997 3.448 C 21.049997 3.448 21.192997 5.338 21.192997 5.338 L 21.202997 12.804 C 21.202997 12.804 21.059998 14.696 23.174997 14.696 L 30.479998 14.696 C 32.598 14.695 32.454 12.804 32.454 12.804 z " fill-opacity="0.4" stroke-opacity="0.4"/>
            <path d="M 32.454 25.16 L 32.442997 17.695 C 32.442997 17.695 32.588997 15.804 30.469997 15.804 L 23.165997 15.804 C 21.049997 15.804 21.192997 17.695 21.192997 17.695 L 21.202997 25.16 C 21.202997 25.16 21.059998 27.051 23.174997 27.051 L 30.479998 27.051 C 32.598 27.051 32.454 25.16 32.454 25.16 z " fill-opacity="0.4" stroke-opacity="0.4"/>
            <path d="M 20.003 12.804 L 19.993 5.338 C 19.993 5.338 20.14 3.448 18.022 3.448 L 10.719 3.448 C 8.601 3.448 8.747 5.338 8.747 5.338 L 8.755 12.804 C 8.755 12.804 8.612 14.696 10.728001 14.696 L 18.031 14.696 C 20.147 14.695 20.003 12.804 20.003 12.804 z " fill-opacity="0.4" stroke-opacity="0.4"/>
            <path d="M 20.003 25.16 L 19.994 17.695 C 19.994 17.695 20.14 15.804 18.022 15.804 L 10.719 15.804 C 8.601 15.804 8.747 17.695 8.747 17.695 L 8.755 25.16 C 8.755 25.16 8.612 27.051 10.728001 27.051 L 18.031 27.051 C 20.147 27.051 20.003 25.16 20.003 25.16 z " fill-opacity="0.4" stroke-opacity="0.4"/>
        </g>
        <linearGradient x1="1200.3408" gradientTransform="matrix(1 0 0 1 -1173.5176 -3180.6484)" y1="3183.3535" x2="1200.3408" gradientUnits="userSpaceOnUse" y2="3199.8696" xlink:type="simple" xlink:actuate="onLoad" id="SVGID_1_" xlink:show="other">
            <stop stop-color="#e2e2e2" offset="0"/>
            <stop stop-color="#7f7f7f" offset="1"/>
        </linearGradient>
        <path fill="url(#SVGID_1_)" d="M 32.454 12.112 L 32.442997 4.6460004 C 32.442997 4.6460004 32.588997 2.7550004 30.469997 2.7550004 L 23.165997 2.7550004 C 21.049997 2.7550004 21.192997 4.6460004 21.192997 4.6460004 L 21.202997 12.110001 C 21.202997 12.110001 21.059998 14.003 23.174997 14.003 L 30.479998 14.003 C 32.598 14.003 32.454 12.112 32.454 12.112 z "/>
        <path fill="#ffffff" d="M 32.08 8.456 L 32.07 4.84 C 32.07 4.84 32.207 3.094 30.228 3.094 L 23.407001 3.094 C 21.429 3.094 21.566002 4.84 21.566002 4.84 L 21.574001 8.456 L 32.08 8.456 z " fill-opacity="0.3" stroke-opacity="0.3"/>
        <linearGradient x1="1200.3408" gradientTransform="matrix(1 0 0 1 -1173.5176 -3180.6484)" y1="3195.708" x2="1200.3408" gradientUnits="userSpaceOnUse" y2="3212.2234" xlink:type="simple" xlink:actuate="onLoad" id="SVGID_2_" xlink:show="other">
            <stop stop-color="#e2e2e2" offset="0"/>
            <stop stop-color="#7f7f7f" offset="1"/>
        </linearGradient>
        <path fill="url(#SVGID_2_)" d="M 32.454 24.469 L 32.442997 17.004 C 32.442997 17.004 32.588997 15.111 30.469997 15.111 L 23.165997 15.111 C 21.049997 15.111 21.192997 17.004 21.192997 17.004 L 21.202997 24.469 C 21.202997 24.469 21.059998 26.36 23.174997 26.36 L 30.479998 26.36 C 32.598 26.359 32.454 24.469 32.454 24.469 z "/>
        <path fill="#ffffff" d="M 32.08 20.813 L 32.07 17.2 C 32.07 17.2 32.207 15.454 30.228 15.454 L 23.407001 15.454 C 21.429 15.454 21.566002 17.2 21.566002 17.2 L 21.574001 20.812 L 32.08 20.812 z " fill-opacity="0.3" stroke-opacity="0.3"/>
        <linearGradient x1="1187.8916" gradientTransform="matrix(1 0 0 1 -1173.5176 -3180.6484)" y1="3183.3535" x2="1187.8916" gradientUnits="userSpaceOnUse" y2="3199.8696" xlink:type="simple" xlink:actuate="onLoad" id="SVGID_3_" xlink:show="other">
            <stop stop-color="#ea2227" offset="0"/>
            <stop stop-color="#d22024" offset="0.3116"/>
            <stop stop-color="#94191c" offset="0.9676"/>
            <stop stop-color="#91191c" offset="1"/>
        </linearGradient>
        <path fill="url(#SVGID_3_)" d="M 20.003 12.112 L 19.993 4.6460004 C 19.993 4.6460004 20.14 2.7550004 18.022 2.7550004 L 10.719 2.7550004 C 8.601 2.7550004 8.747 4.6460004 8.747 4.6460004 L 8.755 12.110001 C 8.755 12.110001 8.612 14.003 10.727 14.003 L 18.031 14.003 C 20.147 14.003 20.003 12.112 20.003 12.112 z "/>
        <linearGradient x1="800.3838" gradientTransform="matrix(1 0 0 1 -786.0117 -2392.0264)" y1="2395.0938" x2="800.3838" gradientUnits="userSpaceOnUse" y2="2400.4561" xlink:type="simple" xlink:actuate="onLoad" id="SVGID_4_" xlink:show="other">
            <stop stop-color="#ffc2c2" offset="0"/>
            <stop stop-color="#ff5050" offset="1"/>
        </linearGradient>
        <path fill="url(#SVGID_4_)" d="M 19.63 8.456 L 19.622 4.84 C 19.622 4.84 19.757 3.094 17.779999 3.094 L 10.958999 3.094 C 8.980999 3.094 9.115998 4.84 9.115998 4.84 L 9.123999 8.456 L 19.63 8.456 z " fill-opacity="0.8" stroke-opacity="0.8"/>
        <linearGradient x1="1187.8916" gradientTransform="matrix(1 0 0 1 -1173.5176 -3180.6484)" y1="3195.709" x2="1187.8916" gradientUnits="userSpaceOnUse" y2="3212.2244" xlink:type="simple" xlink:actuate="onLoad" id="SVGID_5_" xlink:show="other">
            <stop stop-color="#e2e2e2" offset="0"/>
            <stop stop-color="#7f7f7f" offset="1"/>
        </linearGradient>
        <path fill="url(#SVGID_5_)" d="M 20.003 24.469 L 19.994 17.004 C 19.994 17.004 20.14 15.113 18.022 15.113 L 10.719 15.113 C 8.601 15.113 8.747 17.004 8.747 17.004 L 8.755 24.469 C 8.755 24.469 8.612 26.362 10.727 26.362 L 18.031 26.362 C 20.147 26.359 20.003 24.469 20.003 24.469 z "/>
        <path fill="#ffffff" d="M 19.63 20.813 L 19.622 17.2 C 19.622 17.2 19.757 15.454 17.779999 15.454 L 10.958999 15.454 C 8.980999 15.454 9.115998 17.2 9.115998 17.2 L 9.123999 20.812 L 19.63 20.812 z " fill-opacity="0.3" stroke-opacity="0.3"/>
    </g>
</svg>
